<svg xmlns="http://www.w3.org/2000/svg" viewBox="0 0 500 500"><g id="freepik--Character--inject-64"><path d="M140.14,378.51s6.4-3.94,24.62,0,23.63,12.31,25.11,17.72-5.91,9.85-17.73,12.31-28.55-13.79-30-18.22S140.14,378.51,140.14,378.51Z" style="fill:#263238;stroke:#263238;stroke-linecap:round;stroke-linejoin:round"></path><path d="M129.44,284.85a20.47,20.47,0,0,0,3.57,9.24c3.28,4.77,9,11.93,9,11.93s-20.27,19.08-20.57,24.44,1.19,13.12,5.66,16.7,17.59,19.37,21.47,21.46l.29,25.34s.6,7.45,17.59,9.54,16.7-3,16.7-3-2.39-25.94-1.79-33.39S184,351.93,184,340.6s-5.07-25.34-8.05-29.22S165.21,294.69,164,291.71s-5.07-5.07-7.46-10.44-5.66-12.22-8.64-8.94-3,10.43-.89,14.91l2.08,4.47s-5.66-9.54-10.73-10.14S132.72,280.68,129.44,284.85Z" style="fill:#adadad;stroke:#263238;stroke-linecap:round;stroke-linejoin:round"></path><path d="M153.58,332.25s-1.19,11.92,6,19.68" style="fill:none;stroke:#263238;stroke-linecap:round;stroke-linejoin:round"></path><path d="M159.84,348.94s3,6,5.67,8.95" style="fill:none;stroke:#263238;stroke-linecap:round;stroke-linejoin:round"></path><path d="M150.9,368.62s3,1.79,8.65,0" style="fill:none;stroke:#263238;stroke-linecap:round;stroke-linejoin:round"></path><line x1="147.62" y1="289.32" x2="138.08" y2="250.87" style="fill:none;stroke:#263238;stroke-linecap:round;stroke-linejoin:round;stroke-width:2px"></line><circle cx="137.78" cy="249.68" r="2.98" style="fill:#263238"></circle><polyline points="129.61 250.97 132.45 248.01 129.59 248.2" style="fill:none;stroke:#263238;stroke-linecap:round;stroke-linejoin:round;stroke-width:0.5px"></polyline><polyline points="130.06 245.68 132.45 248.01 132.7 244.31" style="fill:none;stroke:#263238;stroke-linecap:round;stroke-linejoin:round;stroke-width:0.5px"></polyline><polyline points="131.28 251.43 132.45 248.01 134.12 244.85" style="fill:none;stroke:#263238;stroke-linecap:round;stroke-linejoin:round;stroke-width:0.5px"></polyline><line x1="132.45" y1="248.01" x2="137.12" y2="250.04" style="fill:none;stroke:#263238;stroke-linecap:round;stroke-linejoin:round;stroke-width:0.5px"></line><polyline points="131.84 255.54 132.4 251.47 130.19 253.31" style="fill:none;stroke:#263238;stroke-linecap:round;stroke-linejoin:round;stroke-width:0.5px"></polyline><polyline points="129.1 251 132.4 251.47 130.43 248.34" style="fill:none;stroke:#263238;stroke-linecap:round;stroke-linejoin:round;stroke-width:0.5px"></polyline><polyline points="133.47 254.93 132.4 251.47 131.89 247.94" style="fill:none;stroke:#263238;stroke-linecap:round;stroke-linejoin:round;stroke-width:0.5px"></polyline><line x1="132.4" y1="251.47" x2="137.37" y2="250.38" style="fill:none;stroke:#263238;stroke-linecap:round;stroke-linejoin:round;stroke-width:0.5px"></line><polyline points="136.34 257.93 134.4 254.31 133.69 257.09" style="fill:none;stroke:#263238;stroke-linecap:round;stroke-linejoin:round;stroke-width:0.5px"></polyline><polyline points="131.45 255.86 134.4 254.31 130.96 252.93" style="fill:none;stroke:#263238;stroke-linecap:round;stroke-linejoin:round;stroke-width:0.5px"></polyline><polyline points="137.29 256.48 134.4 254.31 131.91 251.75" style="fill:none;stroke:#263238;stroke-linecap:round;stroke-linejoin:round;stroke-width:0.5px"></polyline><line x1="134.4" y1="254.31" x2="137.78" y2="250.5" style="fill:none;stroke:#263238;stroke-linecap:round;stroke-linejoin:round;stroke-width:0.5px"></line><polyline points="141.38 257.21 137.68 255.43 138.75 258.09" style="fill:none;stroke:#263238;stroke-linecap:round;stroke-linejoin:round;stroke-width:0.5px"></polyline><polyline points="136.21 258.42 137.68 255.43 134.09 256.33" style="fill:none;stroke:#263238;stroke-linecap:round;stroke-linejoin:round;stroke-width:0.5px"></polyline><polyline points="141.3 255.48 137.68 255.43 134.16 254.82" style="fill:none;stroke:#263238;stroke-linecap:round;stroke-linejoin:round;stroke-width:0.5px"></polyline><line x1="137.68" y1="255.43" x2="138.18" y2="250.36" style="fill:none;stroke:#263238;stroke-linecap:round;stroke-linejoin:round;stroke-width:0.5px"></line><polyline points="145.04 253.68 140.99 254.4 143.42 255.94" style="fill:none;stroke:#263238;stroke-linecap:round;stroke-linejoin:round;stroke-width:0.5px"></polyline><polyline points="141.56 257.69 140.99 254.4 138.62 257.25" style="fill:none;stroke:#263238;stroke-linecap:round;stroke-linejoin:round;stroke-width:0.5px"></polyline><polyline points="143.95 252.32 140.99 254.4 137.79 255.98" style="fill:none;stroke:#263238;stroke-linecap:round;stroke-linejoin:round;stroke-width:0.5px"></polyline><line x1="140.99" y1="254.4" x2="138.42" y2="250.01" style="fill:none;stroke:#263238;stroke-linecap:round;stroke-linejoin:round;stroke-width:0.5px"></line><polyline points="145.91 248.66 143.07 251.63 145.94 251.44" style="fill:none;stroke:#263238;stroke-linecap:round;stroke-linejoin:round;stroke-width:0.5px"></polyline><polyline points="145.46 253.95 143.07 251.63 142.82 255.32" style="fill:none;stroke:#263238;stroke-linecap:round;stroke-linejoin:round;stroke-width:0.5px"></polyline><polyline points="144.24 248.2 143.07 251.63 141.4 254.79" style="fill:none;stroke:#263238;stroke-linecap:round;stroke-linejoin:round;stroke-width:0.5px"></polyline><line x1="143.07" y1="251.63" x2="138.4" y2="249.59" style="fill:none;stroke:#263238;stroke-linecap:round;stroke-linejoin:round;stroke-width:0.5px"></line><polyline points="134.14 242.42 137.84 244.21 136.78 241.54" style="fill:none;stroke:#263238;stroke-linecap:round;stroke-linejoin:round;stroke-width:0.5px"></polyline><polyline points="139.31 241.22 137.84 244.21 141.44 243.3" style="fill:none;stroke:#263238;stroke-linecap:round;stroke-linejoin:round;stroke-width:0.5px"></polyline><polyline points="134.22 244.15 137.84 244.21 141.36 244.82" style="fill:none;stroke:#263238;stroke-linecap:round;stroke-linejoin:round;stroke-width:0.5px"></polyline><line x1="137.84" y1="244.21" x2="137.35" y2="249.27" style="fill:none;stroke:#263238;stroke-linecap:round;stroke-linejoin:round;stroke-width:0.5px"></line><polyline points="130.49 245.96 134.53 245.23 132.1 243.7" style="fill:none;stroke:#263238;stroke-linecap:round;stroke-linejoin:round;stroke-width:0.5px"></polyline><polyline points="133.96 241.95 134.53 245.23 136.9 242.39" style="fill:none;stroke:#263238;stroke-linecap:round;stroke-linejoin:round;stroke-width:0.5px"></polyline><polyline points="131.57 247.31 134.53 245.23 137.74 243.65" style="fill:none;stroke:#263238;stroke-linecap:round;stroke-linejoin:round;stroke-width:0.5px"></polyline><line x1="134.53" y1="245.23" x2="137.11" y2="249.62" style="fill:none;stroke:#263238;stroke-linecap:round;stroke-linejoin:round;stroke-width:0.5px"></line><polyline points="131.69 250.68 133.8 248.47 131.67 248.61" style="fill:none;stroke:#263238;stroke-linecap:round;stroke-linejoin:round;stroke-width:0.5px"></polyline><polyline points="132.02 246.74 133.8 248.47 133.99 245.71" style="fill:none;stroke:#263238;stroke-linecap:round;stroke-linejoin:round;stroke-width:0.5px"></polyline><polyline points="132.93 251.02 133.8 248.47 135.05 246.11" style="fill:none;stroke:#263238;stroke-linecap:round;stroke-linejoin:round;stroke-width:0.5px"></polyline><line x1="133.8" y1="248.47" x2="137.28" y2="249.99" style="fill:none;stroke:#263238;stroke-linecap:round;stroke-linejoin:round;stroke-width:0.5px"></line><polyline points="133.35 254.09 133.77 251.05 132.12 252.42" style="fill:none;stroke:#263238;stroke-linecap:round;stroke-linejoin:round;stroke-width:0.5px"></polyline><polyline points="131.31 250.7 133.77 251.05 132.3 248.71" style="fill:none;stroke:#263238;stroke-linecap:round;stroke-linejoin:round;stroke-width:0.5px"></polyline><polyline points="134.56 253.63 133.77 251.05 133.39 248.42" style="fill:none;stroke:#263238;stroke-linecap:round;stroke-linejoin:round;stroke-width:0.5px"></polyline><line x1="133.77" y1="251.05" x2="137.47" y2="250.24" style="fill:none;stroke:#263238;stroke-linecap:round;stroke-linejoin:round;stroke-width:0.5px"></line><polyline points="136.7 255.86 135.25 253.16 134.73 255.24" style="fill:none;stroke:#263238;stroke-linecap:round;stroke-linejoin:round;stroke-width:0.5px"></polyline><polyline points="133.06 254.32 135.25 253.16 132.69 252.14" style="fill:none;stroke:#263238;stroke-linecap:round;stroke-linejoin:round;stroke-width:0.5px"></polyline><polyline points="137.41 254.78 135.25 253.16 133.4 251.25" style="fill:none;stroke:#263238;stroke-linecap:round;stroke-linejoin:round;stroke-width:0.5px"></polyline><line x1="135.25" y1="253.16" x2="137.77" y2="250.33" style="fill:none;stroke:#263238;stroke-linecap:round;stroke-linejoin:round;stroke-width:0.5px"></line><polyline points="140.46 255.33 137.7 254 138.49 255.99" style="fill:none;stroke:#263238;stroke-linecap:round;stroke-linejoin:round;stroke-width:0.5px"></polyline><polyline points="136.6 256.23 137.7 254 135.02 254.67" style="fill:none;stroke:#263238;stroke-linecap:round;stroke-linejoin:round;stroke-width:0.5px"></polyline><polyline points="140.4 254.04 137.7 254 135.08 253.54" style="fill:none;stroke:#263238;stroke-linecap:round;stroke-linejoin:round;stroke-width:0.5px"></polyline><line x1="137.7" y1="254" x2="138.07" y2="250.22" style="fill:none;stroke:#263238;stroke-linecap:round;stroke-linejoin:round;stroke-width:0.5px"></line><polyline points="143.18 252.69 140.17 253.24 141.98 254.38" style="fill:none;stroke:#263238;stroke-linecap:round;stroke-linejoin:round;stroke-width:0.5px"></polyline><polyline points="140.59 255.68 140.17 253.24 138.4 255.35" style="fill:none;stroke:#263238;stroke-linecap:round;stroke-linejoin:round;stroke-width:0.5px"></polyline><polyline points="142.37 251.68 140.17 253.24 137.78 254.41" style="fill:none;stroke:#263238;stroke-linecap:round;stroke-linejoin:round;stroke-width:0.5px"></polyline><line x1="140.17" y1="253.24" x2="138.25" y2="249.96" style="fill:none;stroke:#263238;stroke-linecap:round;stroke-linejoin:round;stroke-width:0.5px"></line><polyline points="143.84 248.96 141.72 251.17 143.85 251.03" style="fill:none;stroke:#263238;stroke-linecap:round;stroke-linejoin:round;stroke-width:0.5px"></polyline><polyline points="143.5 252.9 141.72 251.17 141.53 253.92" style="fill:none;stroke:#263238;stroke-linecap:round;stroke-linejoin:round;stroke-width:0.5px"></polyline><polyline points="142.59 248.62 141.72 251.17 140.47 253.52" style="fill:none;stroke:#263238;stroke-linecap:round;stroke-linejoin:round;stroke-width:0.5px"></polyline><line x1="141.72" y1="251.17" x2="138.24" y2="249.65" style="fill:none;stroke:#263238;stroke-linecap:round;stroke-linejoin:round;stroke-width:0.5px"></line><polyline points="135.06 244.31 137.82 245.64 137.03 243.65" style="fill:none;stroke:#263238;stroke-linecap:round;stroke-linejoin:round;stroke-width:0.5px"></polyline><polyline points="138.92 243.41 137.82 245.64 140.5 244.96" style="fill:none;stroke:#263238;stroke-linecap:round;stroke-linejoin:round;stroke-width:0.5px"></polyline><polyline points="135.13 245.6 137.82 245.64 140.44 246.09" style="fill:none;stroke:#263238;stroke-linecap:round;stroke-linejoin:round;stroke-width:0.5px"></polyline><line x1="137.82" y1="245.64" x2="137.45" y2="249.41" style="fill:none;stroke:#263238;stroke-linecap:round;stroke-linejoin:round;stroke-width:0.5px"></line><polyline points="132.34 246.94 135.35 246.4 133.54 245.26" style="fill:none;stroke:#263238;stroke-linecap:round;stroke-linejoin:round;stroke-width:0.5px"></polyline><polyline points="134.93 243.95 135.35 246.4 137.12 244.28" style="fill:none;stroke:#263238;stroke-linecap:round;stroke-linejoin:round;stroke-width:0.5px"></polyline><polyline points="133.15 247.95 135.35 246.4 137.74 245.22" style="fill:none;stroke:#263238;stroke-linecap:round;stroke-linejoin:round;stroke-width:0.5px"></polyline><line x1="135.35" y1="246.4" x2="137.27" y2="249.67" style="fill:none;stroke:#263238;stroke-linecap:round;stroke-linejoin:round;stroke-width:0.5px"></line><polyline points="132.4 250.57 134.24 248.65 132.38 248.77" style="fill:none;stroke:#263238;stroke-linecap:round;stroke-linejoin:round;stroke-width:0.5px"></polyline><polyline points="132.69 247.14 134.24 248.65 134.4 246.25" style="fill:none;stroke:#263238;stroke-linecap:round;stroke-linejoin:round;stroke-width:0.5px"></polyline><polyline points="133.48 250.86 134.24 248.65 135.32 246.6" style="fill:none;stroke:#263238;stroke-linecap:round;stroke-linejoin:round;stroke-width:0.5px"></polyline><line x1="134.24" y1="248.64" x2="137.26" y2="249.96" style="fill:none;stroke:#263238;stroke-linecap:round;stroke-linejoin:round;stroke-width:0.5px"></line><polyline points="133.84 253.53 134.2 250.89 132.78 252.08" style="fill:none;stroke:#263238;stroke-linecap:round;stroke-linejoin:round;stroke-width:0.5px"></polyline><polyline points="132.07 250.58 134.2 250.89 132.93 248.86" style="fill:none;stroke:#263238;stroke-linecap:round;stroke-linejoin:round;stroke-width:0.5px"></polyline><polyline points="134.9 253.13 134.2 250.89 133.88 248.6" style="fill:none;stroke:#263238;stroke-linecap:round;stroke-linejoin:round;stroke-width:0.5px"></polyline><line x1="134.2" y1="250.89" x2="137.42" y2="250.18" style="fill:none;stroke:#263238;stroke-linecap:round;stroke-linejoin:round;stroke-width:0.5px"></line><polyline points="136.76 255.07 135.5 252.73 135.04 254.53" style="fill:none;stroke:#263238;stroke-linecap:round;stroke-linejoin:round;stroke-width:0.5px"></polyline><polyline points="133.59 253.73 135.5 252.73 133.27 251.83" style="fill:none;stroke:#263238;stroke-linecap:round;stroke-linejoin:round;stroke-width:0.5px"></polyline><polyline points="137.37 254.13 135.5 252.73 133.88 251.07" style="fill:none;stroke:#263238;stroke-linecap:round;stroke-linejoin:round;stroke-width:0.5px"></polyline><line x1="135.5" y1="252.73" x2="137.69" y2="250.26" style="fill:none;stroke:#263238;stroke-linecap:round;stroke-linejoin:round;stroke-width:0.5px"></line><polyline points="140.02 254.61 137.62 253.45 138.31 255.18" style="fill:none;stroke:#263238;stroke-linecap:round;stroke-linejoin:round;stroke-width:0.5px"></polyline><polyline points="136.67 255.39 137.62 253.45 135.3 254.04" style="fill:none;stroke:#263238;stroke-linecap:round;stroke-linejoin:round;stroke-width:0.5px"></polyline><polyline points="139.97 253.49 137.62 253.45 135.34 253.06" style="fill:none;stroke:#263238;stroke-linecap:round;stroke-linejoin:round;stroke-width:0.5px"></polyline><line x1="137.62" y1="253.45" x2="137.94" y2="250.17" style="fill:none;stroke:#263238;stroke-linecap:round;stroke-linejoin:round;stroke-width:0.5px"></line><polyline points="142.39 252.31 139.77 252.79 141.34 253.78" style="fill:none;stroke:#263238;stroke-linecap:round;stroke-linejoin:round;stroke-width:0.5px"></polyline><polyline points="140.13 254.91 139.77 252.79 138.23 254.63" style="fill:none;stroke:#263238;stroke-linecap:round;stroke-linejoin:round;stroke-width:0.5px"></polyline><polyline points="141.68 251.44 139.77 252.79 137.69 253.81" style="fill:none;stroke:#263238;stroke-linecap:round;stroke-linejoin:round;stroke-width:0.5px"></polyline><line x1="139.77" y1="252.79" x2="138.1" y2="249.94" style="fill:none;stroke:#263238;stroke-linecap:round;stroke-linejoin:round;stroke-width:0.5px"></line><polyline points="142.95 249.07 141.11 250.99 142.97 250.87" style="fill:none;stroke:#263238;stroke-linecap:round;stroke-linejoin:round;stroke-width:0.5px"></polyline><polyline points="142.66 252.5 141.11 250.99 140.95 253.38" style="fill:none;stroke:#263238;stroke-linecap:round;stroke-linejoin:round;stroke-width:0.5px"></polyline><polyline points="141.87 248.77 141.11 250.99 140.03 253.04" style="fill:none;stroke:#263238;stroke-linecap:round;stroke-linejoin:round;stroke-width:0.5px"></polyline><line x1="141.11" y1="250.99" x2="138.09" y2="249.67" style="fill:none;stroke:#263238;stroke-linecap:round;stroke-linejoin:round;stroke-width:0.5px"></line><polyline points="135.33 245.03 137.73 246.19 137.04 244.46" style="fill:none;stroke:#263238;stroke-linecap:round;stroke-linejoin:round;stroke-width:0.5px"></polyline><polyline points="138.68 244.25 137.73 246.19 140.05 245.6" style="fill:none;stroke:#263238;stroke-linecap:round;stroke-linejoin:round;stroke-width:0.5px"></polyline><polyline points="135.39 246.15 137.73 246.19 140.01 246.58" style="fill:none;stroke:#263238;stroke-linecap:round;stroke-linejoin:round;stroke-width:0.5px"></polyline><line x1="137.73" y1="246.18" x2="137.41" y2="249.47" style="fill:none;stroke:#263238;stroke-linecap:round;stroke-linejoin:round;stroke-width:0.5px"></line><polyline points="132.97 247.32 135.58 246.85 134.01 245.86" style="fill:none;stroke:#263238;stroke-linecap:round;stroke-linejoin:round;stroke-width:0.5px"></polyline><polyline points="135.22 244.72 135.58 246.85 137.12 245.01" style="fill:none;stroke:#263238;stroke-linecap:round;stroke-linejoin:round;stroke-width:0.5px"></polyline><polyline points="133.67 248.2 135.58 246.85 137.66 245.83" style="fill:none;stroke:#263238;stroke-linecap:round;stroke-linejoin:round;stroke-width:0.5px"></polyline><line x1="135.58" y1="246.85" x2="137.25" y2="249.69" style="fill:none;stroke:#263238;stroke-linecap:round;stroke-linejoin:round;stroke-width:0.5px"></line><polyline points="133.74 250.38 135.11 248.94 133.73 249.03" style="fill:none;stroke:#263238;stroke-linecap:round;stroke-linejoin:round;stroke-width:0.5px"></polyline><polyline points="133.96 247.82 135.11 248.94 135.23 247.16" style="fill:none;stroke:#263238;stroke-linecap:round;stroke-linejoin:round;stroke-width:0.5px"></polyline><polyline points="134.55 250.6 135.11 248.94 135.92 247.42" style="fill:none;stroke:#263238;stroke-linecap:round;stroke-linejoin:round;stroke-width:0.5px"></polyline><line x1="135.11" y1="248.94" x2="137.36" y2="249.93" style="fill:none;stroke:#263238;stroke-linecap:round;stroke-linejoin:round;stroke-width:0.5px"></line><polyline points="134.82 252.58 135.09 250.62 134.03 251.5" style="fill:none;stroke:#263238;stroke-linecap:round;stroke-linejoin:round;stroke-width:0.5px"></polyline><polyline points="133.5 250.39 135.09 250.62 134.14 249.1" style="fill:none;stroke:#263238;stroke-linecap:round;stroke-linejoin:round;stroke-width:0.5px"></polyline><polyline points="135.6 252.28 135.09 250.62 134.84 248.91" style="fill:none;stroke:#263238;stroke-linecap:round;stroke-linejoin:round;stroke-width:0.5px"></polyline><line x1="135.09" y1="250.62" x2="137.49" y2="250.09" style="fill:none;stroke:#263238;stroke-linecap:round;stroke-linejoin:round;stroke-width:0.5px"></line><polyline points="136.99 253.73 136.05 251.98 135.71 253.33" style="fill:none;stroke:#263238;stroke-linecap:round;stroke-linejoin:round;stroke-width:0.5px"></polyline><polyline points="134.63 252.73 136.05 251.98 134.39 251.32" style="fill:none;stroke:#263238;stroke-linecap:round;stroke-linejoin:round;stroke-width:0.5px"></polyline><polyline points="137.45 253.03 136.05 251.98 134.85 250.75" style="fill:none;stroke:#263238;stroke-linecap:round;stroke-linejoin:round;stroke-width:0.5px"></polyline><line x1="136.05" y1="251.98" x2="137.68" y2="250.15" style="fill:none;stroke:#263238;stroke-linecap:round;stroke-linejoin:round;stroke-width:0.5px"></line><polyline points="139.42 253.39 137.64 252.52 138.15 253.81" style="fill:none;stroke:#263238;stroke-linecap:round;stroke-linejoin:round;stroke-width:0.5px"></polyline><polyline points="136.93 253.97 137.64 252.52 135.9 252.96" style="fill:none;stroke:#263238;stroke-linecap:round;stroke-linejoin:round;stroke-width:0.5px"></polyline><polyline points="139.38 252.55 137.64 252.52 135.94 252.23" style="fill:none;stroke:#263238;stroke-linecap:round;stroke-linejoin:round;stroke-width:0.5px"></polyline><line x1="137.64" y1="252.52" x2="137.88" y2="250.08" style="fill:none;stroke:#263238;stroke-linecap:round;stroke-linejoin:round;stroke-width:0.5px"></line><polyline points="141.19 251.68 139.24 252.03 140.41 252.77" style="fill:none;stroke:#263238;stroke-linecap:round;stroke-linejoin:round;stroke-width:0.5px"></polyline><polyline points="139.51 253.62 139.24 252.03 138.09 253.4" style="fill:none;stroke:#263238;stroke-linecap:round;stroke-linejoin:round;stroke-width:0.5px"></polyline><polyline points="140.66 251.03 139.24 252.03 137.69 252.79" style="fill:none;stroke:#263238;stroke-linecap:round;stroke-linejoin:round;stroke-width:0.5px"></polyline><line x1="139.23" y1="252.03" x2="137.99" y2="249.91" style="fill:none;stroke:#263238;stroke-linecap:round;stroke-linejoin:round;stroke-width:0.5px"></line><polyline points="141.61 249.26 140.24 250.69 141.62 250.6" style="fill:none;stroke:#263238;stroke-linecap:round;stroke-linejoin:round;stroke-width:0.5px"></polyline><polyline points="141.39 251.81 140.24 250.69 140.12 252.47" style="fill:none;stroke:#263238;stroke-linecap:round;stroke-linejoin:round;stroke-width:0.5px"></polyline><polyline points="140.8 249.04 140.24 250.69 139.43 252.22" style="fill:none;stroke:#263238;stroke-linecap:round;stroke-linejoin:round;stroke-width:0.5px"></polyline><line x1="140.24" y1="250.69" x2="137.99" y2="249.71" style="fill:none;stroke:#263238;stroke-linecap:round;stroke-linejoin:round;stroke-width:0.5px"></line><polyline points="135.93 246.25 137.72 247.11 137.2 245.82" style="fill:none;stroke:#263238;stroke-linecap:round;stroke-linejoin:round;stroke-width:0.5px"></polyline><polyline points="138.43 245.67 137.72 247.11 139.45 246.67" style="fill:none;stroke:#263238;stroke-linecap:round;stroke-linejoin:round;stroke-width:0.5px"></polyline><polyline points="135.97 247.08 137.72 247.11 139.41 247.41" style="fill:none;stroke:#263238;stroke-linecap:round;stroke-linejoin:round;stroke-width:0.5px"></polyline><line x1="137.71" y1="247.11" x2="137.48" y2="249.56" style="fill:none;stroke:#263238;stroke-linecap:round;stroke-linejoin:round;stroke-width:0.5px"></line><polyline points="134.17 247.96 136.12 247.6 134.94 246.87" style="fill:none;stroke:#263238;stroke-linecap:round;stroke-linejoin:round;stroke-width:0.5px"></polyline><polyline points="135.84 246.02 136.12 247.6 137.26 246.23" style="fill:none;stroke:#263238;stroke-linecap:round;stroke-linejoin:round;stroke-width:0.5px"></polyline><polyline points="134.69 248.61 136.12 247.6 137.66 246.84" style="fill:none;stroke:#263238;stroke-linecap:round;stroke-linejoin:round;stroke-width:0.5px"></polyline><line x1="136.12" y1="247.6" x2="137.36" y2="249.72" style="fill:none;stroke:#263238;stroke-linecap:round;stroke-linejoin:round;stroke-width:0.5px"></line><path d="M134.21,287.83a11.37,11.37,0,0,0,3.57,2.39,28.64,28.64,0,0,0,4.77.89s3.58,4.47,8.35,4.47,6.26-1.19,5.07-4.77-5.67-6.85-7.16-8.64-7.15-3.58-9.83-4.17-8.65,2.68-9.54,5.36a4.81,4.81,0,0,0,.59,4.47" style="fill:#adadad;stroke:#263238;stroke-linecap:round;stroke-linejoin:round"></path><line x1="150.9" y1="295.58" x2="154.18" y2="303.04" style="fill:#fff;stroke:#263238;stroke-linecap:round;stroke-linejoin:round"></line><path d="M123.48,338.81s-2.69-7.16-2.39-10.73,5.66-10.14,5.66-10.14l9.54-11.33,7.46-9.54a4,4,0,0,1,4.47,0c2.68,1.49,12.82,16.1,13.41,20.57s-4.77,8.65-6.56,9.84c-.78.52-3-.89-3-.89s3.28,4.77-.59,7.75-6,3.57-6,3.57-1.49,3.58-4.76,4.48a9.51,9.51,0,0,1-7.76-1.2,8,8,0,0,1-3-3s-.59,1.49-4.47-1.19" style="fill:#adadad;stroke:#263238;stroke-linecap:round;stroke-linejoin:round"></path><path d="M126.75,317.94s1.49-1.19,4.48,1.19S144,336.42,144,336.42" style="fill:none;stroke:#263238;stroke-linecap:round;stroke-linejoin:round"></path><path d="M136.29,306.61s3.28-.89,6.26,2.39,9.54,17.59,9.54,17.59" style="fill:none;stroke:#263238;stroke-linecap:round;stroke-linejoin:round"></path><path d="M204.21,456.45c-7.87-11.32-14.34-60.22-14.34-60.22s-6.77,4.29-25.6-.49-24.13-17.23-24.13-17.23-4.47,35.11,2.92,77.94" style="fill:#fff;stroke:#263238;stroke-linecap:round;stroke-linejoin:round"></path><path d="M139.3,423.15c13.23,2.82,36.7,3,54.84-.77-2.63-13.75-4.27-26.15-4.27-26.15s-6.77,4.29-25.6-.49-24.13-17.23-24.13-17.23S137.81,396.84,139.3,423.15Z" style="fill:#fff;stroke:#263238;stroke-linecap:round;stroke-linejoin:round"></path><polyline points="67.04 234.81 63.34 233.03 64.41 235.69" style="fill:none;stroke:#263238;stroke-linecap:round;stroke-linejoin:round;stroke-width:0.5px"></polyline><polyline points="61.87 236.02 63.34 233.03 59.75 233.93" style="fill:none;stroke:#263238;stroke-linecap:round;stroke-linejoin:round;stroke-width:0.5px"></polyline><polyline points="66.96 233.08 63.34 233.03 59.82 232.42" style="fill:none;stroke:#263238;stroke-linecap:round;stroke-linejoin:round;stroke-width:0.5px"></polyline><line x1="63.34" y1="233.03" x2="63.84" y2="227.96" style="fill:none;stroke:#263238;stroke-linecap:round;stroke-linejoin:round;stroke-width:0.5px"></line><polyline points="85.9 230.11 89.6 231.9 88.53 229.23" style="fill:none;stroke:#263238;stroke-linecap:round;stroke-linejoin:round;stroke-width:0.5px"></polyline><polyline points="91.07 228.91 89.6 231.9 93.19 230.99" style="fill:none;stroke:#263238;stroke-linecap:round;stroke-linejoin:round;stroke-width:0.5px"></polyline><polyline points="85.98 231.84 89.6 231.9 93.12 232.51" style="fill:none;stroke:#263238;stroke-linecap:round;stroke-linejoin:round;stroke-width:0.5px"></polyline><line x1="89.6" y1="231.9" x2="89.1" y2="236.97" style="fill:none;stroke:#263238;stroke-linecap:round;stroke-linejoin:round;stroke-width:0.5px"></line><polyline points="42.83 230.41 40.07 229.08 40.87 231.07" style="fill:none;stroke:#263238;stroke-linecap:round;stroke-linejoin:round;stroke-width:0.5px"></polyline><polyline points="38.97 231.31 40.07 229.08 37.39 229.75" style="fill:none;stroke:#263238;stroke-linecap:round;stroke-linejoin:round;stroke-width:0.5px"></polyline><polyline points="42.77 229.12 40.07 229.08 37.45 228.63" style="fill:none;stroke:#263238;stroke-linecap:round;stroke-linejoin:round;stroke-width:0.5px"></polyline><line x1="40.07" y1="229.08" x2="40.44" y2="225.3" style="fill:none;stroke:#263238;stroke-linecap:round;stroke-linejoin:round;stroke-width:0.5px"></line><polyline points="101.9 227.81 104.66 229.14 103.86 227.15" style="fill:none;stroke:#263238;stroke-linecap:round;stroke-linejoin:round;stroke-width:0.5px"></polyline><polyline points="105.75 226.91 104.66 229.14 107.33 228.46" style="fill:none;stroke:#263238;stroke-linecap:round;stroke-linejoin:round;stroke-width:0.5px"></polyline><polyline points="101.96 229.1 104.66 229.14 107.28 229.59" style="fill:none;stroke:#263238;stroke-linecap:round;stroke-linejoin:round;stroke-width:0.5px"></polyline><line x1="104.65" y1="229.14" x2="104.29" y2="232.91" style="fill:none;stroke:#263238;stroke-linecap:round;stroke-linejoin:round;stroke-width:0.5px"></line><polyline points="117.83 218.67 120.58 220 119.79 218.01" style="fill:none;stroke:#263238;stroke-linecap:round;stroke-linejoin:round;stroke-width:0.5px"></polyline><polyline points="121.68 217.77 120.58 220 123.26 219.32" style="fill:none;stroke:#263238;stroke-linecap:round;stroke-linejoin:round;stroke-width:0.5px"></polyline><polyline points="117.89 219.96 120.58 220 123.21 220.45" style="fill:none;stroke:#263238;stroke-linecap:round;stroke-linejoin:round;stroke-width:0.5px"></polyline><line x1="120.58" y1="220" x2="120.22" y2="223.77" style="fill:none;stroke:#263238;stroke-linecap:round;stroke-linejoin:round;stroke-width:0.5px"></line><polyline points="103.48 247.01 106.49 246.47 104.68 245.33" style="fill:none;stroke:#263238;stroke-linecap:round;stroke-linejoin:round;stroke-width:0.5px"></polyline><polyline points="106.07 244.02 106.49 246.47 108.26 244.35" style="fill:none;stroke:#263238;stroke-linecap:round;stroke-linejoin:round;stroke-width:0.5px"></polyline><polyline points="104.29 248.02 106.49 246.47 108.88 245.3" style="fill:none;stroke:#263238;stroke-linecap:round;stroke-linejoin:round;stroke-width:0.5px"></polyline><line x1="106.49" y1="246.47" x2="108.41" y2="249.74" style="fill:none;stroke:#263238;stroke-linecap:round;stroke-linejoin:round;stroke-width:0.5px"></line><polyline points="119.16 238.25 122.17 237.71 120.36 236.57" style="fill:none;stroke:#263238;stroke-linecap:round;stroke-linejoin:round;stroke-width:0.5px"></polyline><polyline points="121.75 235.26 122.17 237.71 123.94 235.59" style="fill:none;stroke:#263238;stroke-linecap:round;stroke-linejoin:round;stroke-width:0.5px"></polyline><polyline points="119.97 239.26 122.17 237.71 124.56 236.53" style="fill:none;stroke:#263238;stroke-linecap:round;stroke-linejoin:round;stroke-width:0.5px"></polyline><line x1="122.17" y1="237.71" x2="124.09" y2="240.98" style="fill:none;stroke:#263238;stroke-linecap:round;stroke-linejoin:round;stroke-width:0.5px"></line><polyline points="73.08 243.82 76.1 243.27 74.29 242.13" style="fill:none;stroke:#263238;stroke-linecap:round;stroke-linejoin:round;stroke-width:0.5px"></polyline><polyline points="75.67 240.83 76.1 243.27 77.87 241.16" style="fill:none;stroke:#263238;stroke-linecap:round;stroke-linejoin:round;stroke-width:0.5px"></polyline><polyline points="73.89 244.83 76.1 243.27 78.49 242.1" style="fill:none;stroke:#263238;stroke-linecap:round;stroke-linejoin:round;stroke-width:0.5px"></polyline><line x1="76.1" y1="243.27" x2="78.02" y2="246.55" style="fill:none;stroke:#263238;stroke-linecap:round;stroke-linejoin:round;stroke-width:0.5px"></line><path d="M207,456.61s18.5-70,21.5-86.5a37,37,0,0,1,15.5-24,97.52,97.52,0,0,1,12-4c6-1.5,19.5-4.5,30.5-11S324.66,281.3,348.1,300c13.93,11.15,24.48,25.37,35.48,44.87s39.91,105,39.91,105" style="fill:#fff;stroke:#263238;stroke-linecap:round;stroke-linejoin:round"></path><path d="M227.68,181s-5.92,10.35-6.41,16.75,0,11.33-3.94,19.71-17.24,13.79-17.24,17.24S206,245,206,245s-1,5.91-3.94,6.9,1,7.39,1,7.39-2.46,2.46,0,5.91,3,1,3,6.4-3.94,11.83-1.48,16.26,6.41,5.42,12.81,4.93,15.77-3,19.21-1S255,310.44,255,310.44l62.88-32.68s-14.28-13-21.18-43.57-20.2-69-37.94-72.42S228.17,168.67,227.68,181Z" style="fill:#adadad;stroke:#263238;stroke-linecap:round;stroke-linejoin:round"></path><path d="M203,259.32a23.56,23.56,0,0,0,6.21-.05" style="fill:none;stroke:#263238;stroke-linecap:round;stroke-linejoin:round"></path><path d="M209,243s5,5,9,2.5,2-6,2-6" style="fill:none;stroke:#263238;stroke-linecap:round;stroke-linejoin:round"></path><path d="M233.74,211.4s-1.55,5.76-2.43,8.2" style="fill:none;stroke:#263238;stroke-linecap:round;stroke-linejoin:round"></path><path d="M229.31,219.16s6.65,2.43,11.74,2l2.66-.44a12.34,12.34,0,0,1-5.54,1.77c-3.76.44-6.64,0-6-.22l.67-1.11s-.89.44-3.55.22S226.21,219.38,229.31,219.16Z" style="fill:#263238;stroke:#263238;stroke-linecap:round;stroke-linejoin:round"></path><path d="M230,203.88s1.1-6.21,8.63-5.1,8.42,5.1,8.42,5.1-5.32-3.1-8.42-2.66S231.08,207,230,203.88Z" style="fill:#263238"></path><path d="M262.83,274.48c-1.38.51-2.83,1-4.33,1.52" style="fill:none;stroke:#263238;stroke-linecap:round;stroke-linejoin:round"></path><path d="M286,263s-6.36,4.69-18.53,9.68" style="fill:none;stroke:#263238;stroke-linecap:round;stroke-linejoin:round"></path><path d="M228.5,454.11s18.5-83.5,23-102.5,17.5-13.5,20-13-8.5,117.5-8.5,119.5" style="fill:#008010;stroke:#263238;stroke-linecap:round;stroke-linejoin:round"></path><path d="M246,460.11s3.5-52,8-75.5,7-39,7-39l42.5-29s-10.5,101-5.5,140.5" style="fill:#008010;stroke:#263238;stroke-linecap:round;stroke-linejoin:round"></path><path d="M254.91,356.23l1.55.86,2.1,1.17s27.12-17.81,36.84-23.48,28.34-25.51,28.34-25.51Z" style="fill:#263238;stroke:#263238;stroke-linecap:round;stroke-linejoin:round"></path><path d="M249.5,418.74c-.52,5.1-1,10.15-1.41,14.89l48.83-22.11c.16-5.43.37-11,.64-16.51Z" style="fill:#fff;stroke:#263238;stroke-linecap:round;stroke-linejoin:round"></path><path d="M296.7,421.74l-49.35,20.61c-.2,2.45-.38,4.73-.54,6.78l49.85-17C296.64,428.79,296.65,425.31,296.7,421.74Z" style="fill:#fff;stroke:#263238;stroke-linecap:round;stroke-linejoin:round"></path><path d="M312.1,280s-81.74,32-85.12,39.51,6.77,11.76,6.77,11.76-3.87,8.47.48,13.17,13.55,15.05,21.77,11.76,56.1-38.57,72.07-49.39,20.79-15.52,17.89-20.69S327.58,270.08,312.1,280Z" style="fill:#008010;stroke:#263238;stroke-linecap:round;stroke-linejoin:round"></path><path d="M320.55,276.45a25.46,25.46,0,0,0-8.45,3.5l-1.78.71-25.43,56.6c5-3.49,10.17-7.17,15.22-10.77Z" style="fill:#fff;stroke:#263238;stroke-linecap:round;stroke-linejoin:round"></path><path d="M283.92,291.36,252,356.76a9,9,0,0,0,4-.61,61.89,61.89,0,0,0,8.05-4.67l33.13-65.56C293.22,287.52,288.71,289.37,283.92,291.36Z" style="fill:#fff;stroke:#263238;stroke-linecap:round;stroke-linejoin:round"></path><path d="M331.53,276.71,316,315.17c4.83-3.43,9-6.36,12-8.41C344,296,348.86,291.24,346,286.07,344.34,283.18,338.8,278.54,331.53,276.71Z" style="fill:#fff;stroke:#263238;stroke-linecap:round;stroke-linejoin:round"></path><path d="M284.28,308.25c-9.85,6-18.71,12.23-23,17.33" style="fill:none;stroke:#263238;stroke-linecap:round;stroke-linejoin:round"></path><path d="M326.62,285.6s-19.59,9.26-37.74,19.9" style="fill:none;stroke:#263238;stroke-linecap:round;stroke-linejoin:round"></path><path d="M255.79,326.35a32.32,32.32,0,0,0-3.18,4.4" style="fill:none;stroke:#263238;stroke-linecap:round;stroke-linejoin:round"></path><path d="M269.54,313.35a121.39,121.39,0,0,0-10.79,9.74" style="fill:none;stroke:#263238;stroke-linecap:round;stroke-linejoin:round"></path><line x1="253.1" y1="324.64" x2="246.81" y2="333.1" style="fill:none;stroke:#263238;stroke-linecap:round;stroke-linejoin:round"></line><path d="M324.51,462.33s-8.5-44-8.5-77,0-51,16-65.5,24-12.5,35.5-1.5,22,36.5,35.5,78.5,19.49,60.28,19.49,60.28" style="fill:#fff;stroke:#263238;stroke-linecap:round;stroke-linejoin:round"></path><path d="M416.05,228.59c-.54-9.21-7-8.12-.54-14.62s7.58-17.87,5.41-23.83-4.33-9.21-4.33-16.25-3.25-15.7-8.67-17.87-9.2-7-9.2-15.16-3.25-7-8.67-9.75-5.95-8.12-11.37-14.62-11.91-4.87-16.24-4.33-1.63-6-10.29-7-9.75,2.71-11.92,2.71-9.2-8.67-14.62-8.67S319.66,103,317,103s-7-10.83-17.33-9.2-8.12,6-11.92,6.5-8.12-5.42-14.62-3.25-5.95,11.37-10.83,10.83l-4.87-.54s-12.46-7-17.33,1.62,4.87,15.16-1.08,17.33-18.41-6.5-20,3.25,6.5,9.2,4.87,14.08-7.58,4.33-8.66,11.37,6,6,7.58,7.58-7,7-3.79,12.46a12.38,12.38,0,0,0,8.67,6,35.87,35.87,0,0,1,23.82-16.24s-4.33,8.66-.54,15.16,15.16,4.33,13,10.83S252,206.39,258.46,214s15.71,0,15.71,9.2-6,11.38-2.71,16.25,7.58-.54,8.66,4.87-5.95,19.5-.54,24.91c3.07,3.07,6.83,2,9.81,1.81,1.62.9,3.13,2.09,3.13,3.41,0,2.86-7.61,6.66-1.58,12.05s13.3-.34,15.68,4.9.8,9.36,14.11,10.95,20.6-7.93,25.67-6,11.73,7,18.07,2.54a30.85,30.85,0,0,0,3.39-2.75,7.53,7.53,0,0,0,4.32-2.51,14.2,14.2,0,0,0,1.66-2.81,5.61,5.61,0,0,1,2.36-.49c4.43,0,12.36,2.85,12.36-3.48a16.9,16.9,0,0,1,.15-2.33c3.05-1.2,5.13-3.81,5.13-6a2,2,0,0,0-.07-.56,16.3,16.3,0,0,1,3.35-.89c4.43-.74,7.32-3,7.8-9.22,3.56-1.57,6.24-3.62,6.8-6.66,1.08-6-2.17-10.83-1.09-14.08S416.59,237.79,416.05,228.59Z" style="fill:#263238;stroke:#263238;stroke-linecap:round;stroke-linejoin:round"></path></g></svg>