<svg xmlns="http://www.w3.org/2000/svg" xmlns:xlink="http://www.w3.org/1999/xlink" viewBox="0 0 500 500"><defs><clipPath id="freepik--clip-path--inject-2"><path d="M254.79,314.84c16.47-.65,21.64-16.5,23.26-25.71-6.87-1.9-10.42-5.25-11.47-7.76s-2.11-14.32-1.69-17.05l-23.57-.64s.63,13.9-2.74,19.79c-1.72,3-5.38,4.38-9.47,5C230.67,295.08,237,315.55,254.79,314.84Z" style="fill:#fff;stroke:#263238;stroke-linecap:round;stroke-linejoin:round"></path></clipPath><clipPath id="freepik--clip-path-2--inject-2"><path d="M252.4,425c-4.46-1.61-12.24-5.71-22.9-16.22C212,391.5,201,377,187.5,371s-26.5,7.25-25.75,21.5,11.25,34.25,42.5,45.75a126.81,126.81,0,0,0,36.26,7.49C251.87,441,252.93,431,252.4,425Z" style="fill:#696969;stroke:#263238;stroke-linecap:round;stroke-linejoin:round"></path></clipPath><clipPath id="freepik--clip-path-3--inject-2"><path d="M250,425c4.45-1.61,12.23-5.71,22.9-16.22,17.5-17.25,28.5-31.75,42-37.75s26.5,7.25,25.75,21.5-11.25,34.25-42.5,45.75a126.8,126.8,0,0,1-36.27,7.49C250.53,441,249.48,431,250,425Z" style="fill:#696969;stroke:#263238;stroke-linecap:round;stroke-linejoin:round"></path></clipPath></defs><g id="freepik--Character--inject-2"><g id="freepik--Hair--inject-2"><path d="M225.67,294s-14.67,1.33-20-8,4-20.67-6-24.67-22,9.34-42-2-9.34-26-4-37.33,8-16.67-4.67-24-26.67-28.67-18-49.33,30.67-11.34,42-22,1.33-23.34.67-40.67S196.33,55.33,219,58.67,246.33,86,246.33,101.33s24,19.34,35.34,2S302.33,82,319,89.33s2.67,32,10.67,36,14.66-15.33,38.66-4S379,162.66,367,170c-17.46,10.69,3.13,31.42,6.44,44.11,4.85,18.55-10.08,33.39-28.44,32.56-29.33-1.34-36.67-6-42.67,2.66S315,260,312.33,274s-8,19.33-20,19.33-19.33-10.66-32-5.33S231.67,297.33,225.67,294Z" style="fill:#263238;stroke:#263238;stroke-linecap:round;stroke-linejoin:round"></path></g><path d="M202.5,389.5a72,72,0,0,0-2.25,24.5c1.25,12.75,7.75,19.5,36,23.75s47.75.75,63.5-6.75,12.18-34.41,8.09-40.58S288,383,262.5,385.25,221.25,383.5,212,385,202.5,389.5,202.5,389.5Z" style="fill:#696969;stroke:#263238;stroke-linecap:round;stroke-linejoin:round"></path><path d="M292.5,393.5s-13.5,3.5-23,6-10.5,3.5-2,4.5,24.5,0,24.5,0-22.5,10.5-34.5,13-34-5.5-36.5-7.5,10.5-2,14-3.5,1.5-3.5-11-5.5-10,9.5,1,17.5,17.5,10.5,31.75,8,33.75-8.5,40.25-20.5S292.5,393.5,292.5,393.5Z" style="opacity:0.30000000000000004"></path><path d="M196.13,313.45l-1.66,33.4s-3,7.76,2.4,12.74,12.36,3.51,16-2.95,3.14-21.41,4.06-27.32-6.27-12-12.18-14.21S196.13,313.45,196.13,313.45Z" style="fill:#fff;stroke:#263238;stroke-linecap:round;stroke-linejoin:round"></path><path d="M313.07,313.45l1.66,33.4s2.95,7.76-2.4,12.74-12.37,3.51-16.06-2.95-3.14-21.41-4.06-27.32,6.28-12,12.18-14.21S313.07,313.45,313.07,313.45Z" style="fill:#fff;stroke:#263238;stroke-linecap:round;stroke-linejoin:round"></path><path d="M241.32,263.68s.63,13.9-2.74,19.79S224.47,289,217.53,289s-17.27,5.68-20.64,11.37a103.61,103.61,0,0,0-6.52,14.52l23.16,12.42s-2.53,4.85,0,12,6.31,9.9,5.26,13.48-14.74,29.05-16,33.05a37.69,37.69,0,0,0-1.47,5.68s29.26,5.69,54.73,4.85,51.79-5.9,51.79-5.9-7.79-13.68-12-21.47-8-15.79-7.16-18.53,5.69-10.1,5.48-22.95c0,0,18.73-4.84,25.68-12.63,0,0-8.21-20.42-16.63-23.79s-18.1,0-25-1.89-10.53-5.27-11.58-7.79-2.11-14.32-1.69-17.05Z" style="fill:#008010;stroke:#263238;stroke-linecap:round;stroke-linejoin:round"></path><path d="M220,345s-7-7.5,1-8.5,19.5,7,32,10,27.5-10.5,34-8.5,2.5,12-4.5,16.5-26.5,4-37.5,3.5S228.5,354.5,220,345Z" style="opacity:0.30000000000000004"></path><path d="M229,349.64s3.81,3.05,14,3.05,18-4.57,25.14-3.3" style="fill:none;stroke:#263238;stroke-linecap:round;stroke-linejoin:round"></path><path d="M224.68,350.4s4.31,3.56,13.2,3.81" style="fill:none;stroke:#263238;stroke-linecap:round;stroke-linejoin:round"></path><path d="M213.53,327.26s.73-3.77,5.56-7.33" style="fill:none;stroke:#263238;stroke-linecap:round;stroke-linejoin:round"></path><path d="M294.16,327.47s-1.69-7.28-6.26-8.81" style="fill:none;stroke:#263238;stroke-linecap:round;stroke-linejoin:round"></path><path d="M254.79,314.84c16.47-.65,21.64-16.5,23.26-25.71-6.87-1.9-10.42-5.25-11.47-7.76s-2.11-14.32-1.69-17.05l-23.57-.64s.63,13.9-2.74,19.79c-1.72,3-5.38,4.38-9.47,5C230.67,295.08,237,315.55,254.79,314.84Z" style="fill:#fff"></path><g style="clip-path:url(#freepik--clip-path--inject-2)"><path d="M265.3,274.06a56,56,0,0,1-.41-9.74l-23.57-.64a77.89,77.89,0,0,1-.37,10.73C245.09,277.12,253.48,280.36,265.3,274.06Z" style="opacity:0.30000000000000004"></path></g><path d="M254.79,314.84c16.47-.65,21.64-16.5,23.26-25.71-6.87-1.9-10.42-5.25-11.47-7.76s-2.11-14.32-1.69-17.05l-23.57-.64s.63,13.9-2.74,19.79c-1.72,3-5.38,4.38-9.47,5C230.67,295.08,237,315.55,254.79,314.84Z" style="fill:none;stroke:#263238;stroke-linecap:round;stroke-linejoin:round"></path><path d="M231.32,235s-3-4.89-5.95-1.91,0,8.92,1.91,11.68,5.52,4.88,6.37,3.82S231.32,235,231.32,235Z" style="fill:#fff;stroke:#263238;stroke-linecap:round;stroke-linejoin:round"></path><path d="M277.4,234.56s4.25-5.52,6.59-.21-4,13.38-7,14.87-1.49-3.4-1.28-5.1S277.4,234.56,277.4,234.56Z" style="fill:#fff;stroke:#263238;stroke-linecap:round;stroke-linejoin:round"></path><path d="M229,216.3s1.49,20.18,2.55,30.37S236.41,266,248.09,269s21-1.06,24.43-7.86,5.31-19.75,5.31-30.37v-17S247.67,205.26,229,216.3Z" style="fill:#fff;stroke:#263238;stroke-linecap:round;stroke-linejoin:round"></path><path d="M251.49,245.18a7.89,7.89,0,0,0,3.61,1.28,9.24,9.24,0,0,0,3.82-1.28" style="fill:none;stroke:#263238;stroke-linecap:round;stroke-linejoin:round"></path><path d="M248.73,251.77s5.31,3.4,13-.43" style="fill:none;stroke:#263238;stroke-linecap:round;stroke-linejoin:round"></path><path d="M240.24,234.56s4.46-.63,7,1.07" style="fill:none;stroke:#263238;stroke-linecap:round;stroke-linejoin:round;stroke-width:2px"></path><path d="M261.05,235.41s4.25-2.12,8.28-.21" style="fill:none;stroke:#263238;stroke-linecap:round;stroke-linejoin:round;stroke-width:2px"></path><path d="M230.26,232.63a33.77,33.77,0,0,0,3.39-7.83,23.6,23.6,0,0,0,1.17-11.22A35.25,35.25,0,0,0,229,216.3S229.56,224.21,230.26,232.63Z" style="fill:#263238;stroke:#263238;stroke-linecap:round;stroke-linejoin:round"></path><path d="M277.82,230.94c0-.07,0-.13,0-.2v-17s-2.08-.58-5.47-1.24C272.57,215.8,273.56,225.75,277.82,230.94Z" style="fill:#263238;stroke:#263238;stroke-linecap:round;stroke-linejoin:round"></path><path d="M238.54,227.13s3.61-4.88,11.25-3.4" style="fill:none;stroke:#263238;stroke-linecap:round;stroke-linejoin:round"></path><path d="M260.62,224.37A10.39,10.39,0,0,1,271,226.28" style="fill:none;stroke:#263238;stroke-linecap:round;stroke-linejoin:round"></path><path d="M256.75,426s-9.75,0-27.25-17.25S201,377,187.5,371s-26.5,7.25-25.75,21.5,11.25,34.25,42.5,45.75S262.25,445,265,445s16.25,6.75,24.25,7.5a62.24,62.24,0,0,0,13.25,0s2.25.25,3.5.25,2.75-1.5,2.75-1.5,2.53.66,3.53-1.09.22-2.41.22-2.41,4.28.37,5.78-2.38-.64-2.64-.64-2.64,2.93-.57,2.86-2.93a5.13,5.13,0,0,0-.5-2.55s1.75-2.75,1-5-3.5-3-6.25-1.75-16,.75-26.75,0S256.75,426,256.75,426Z" style="fill:#fff;stroke:#263238;stroke-linecap:round;stroke-linejoin:round"></path><path d="M252.4,425c-4.46-1.61-12.24-5.71-22.9-16.22C212,391.5,201,377,187.5,371s-26.5,7.25-25.75,21.5,11.25,34.25,42.5,45.75a126.81,126.81,0,0,0,36.26,7.49C251.87,441,252.93,431,252.4,425Z" style="fill:#696969"></path><g style="clip-path:url(#freepik--clip-path-2--inject-2)"><path d="M248.15,440.34c-4.93-1.87-10.69-3.87-17.15-5.84-23-7-40-15.5-51.5-28.5s-7.5-29.5-7.5-29.5l-2.65-2.4a23.35,23.35,0,0,0-7.6,18.4c.75,14.25,11.25,34.25,42.5,45.75a126.81,126.81,0,0,0,36.26,7.49A19.9,19.9,0,0,0,248.15,440.34Z" style="opacity:0.30000000000000004"></path></g><path d="M252.4,425c-4.46-1.61-12.24-5.71-22.9-16.22C212,391.5,201,377,187.5,371s-26.5,7.25-25.75,21.5,11.25,34.25,42.5,45.75a126.81,126.81,0,0,0,36.26,7.49C251.87,441,252.93,431,252.4,425Z" style="fill:none;stroke:#263238;stroke-linecap:round;stroke-linejoin:round"></path><path d="M320,437.25a5.62,5.62,0,0,0-4.86.12" style="fill:#fff;stroke:#263238;stroke-linecap:round;stroke-linejoin:round"></path><path d="M317.64,442.73a5.87,5.87,0,0,0-4,0" style="fill:#fff;stroke:#263238;stroke-linecap:round;stroke-linejoin:round"></path><path d="M312.5,447.75a4.79,4.79,0,0,0-3.22-.95" style="fill:#fff;stroke:#263238;stroke-linecap:round;stroke-linejoin:round"></path><path d="M308.49,451s-1.07-1.93-2.64-1.93" style="fill:#fff;stroke:#263238;stroke-linecap:round;stroke-linejoin:round"></path><path d="M245.66,426s9.75,0,27.25-17.25,28.5-31.75,42-37.75,26.5,7.25,25.75,21.5-11.25,34.25-42.5,45.75-58,6.75-60.75,6.75-16.25,6.75-24.25,7.5a62.24,62.24,0,0,1-13.25,0s-2.25.25-3.5.25-2.75-1.5-2.75-1.5-2.53.66-3.53-1.09-.22-2.41-.22-2.41-4.29.37-5.79-2.38.64-2.64.64-2.64-2.93-.57-2.86-2.93a5,5,0,0,1,.51-2.55s-1.75-2.75-1-5,3.5-3,6.25-1.75,16,.75,26.75,0S245.66,426,245.66,426Z" style="fill:#fff;stroke:#263238;stroke-linecap:round;stroke-linejoin:round"></path><path d="M250,425c4.45-1.61,12.23-5.71,22.9-16.22,17.5-17.25,28.5-31.75,42-37.75s26.5,7.25,25.75,21.5-11.25,34.25-42.5,45.75a126.8,126.8,0,0,1-36.27,7.49C250.53,441,249.48,431,250,425Z" style="fill:#696969"></path><g style="clip-path:url(#freepik--clip-path-3--inject-2)"><path d="M340.66,392.5c.52-9.93-5.64-19.36-14-22.15L323,373s12.5,7.5,9.5,22-27.5,29.5-47,37.5a222.3,222.3,0,0,1-29.82,9.33,20.85,20.85,0,0,0,6.21,3.91,126.8,126.8,0,0,0,36.27-7.49C329.41,426.75,339.91,406.75,340.66,392.5Z" style="opacity:0.30000000000000004"></path></g><path d="M250,425c4.45-1.61,12.23-5.71,22.9-16.22,17.5-17.25,28.5-31.75,42-37.75s26.5,7.25,25.75,21.5-11.25,34.25-42.5,45.75a126.8,126.8,0,0,1-36.27,7.49C250.53,441,249.48,431,250,425Z" style="fill:none;stroke:#263238;stroke-linecap:round;stroke-linejoin:round"></path><path d="M182.41,437.25a5.62,5.62,0,0,1,4.86.12" style="fill:#fff;stroke:#263238;stroke-linecap:round;stroke-linejoin:round"></path><path d="M184.76,442.73a5.87,5.87,0,0,1,4,0" style="fill:#fff;stroke:#263238;stroke-linecap:round;stroke-linejoin:round"></path><path d="M189.91,447.75a4.79,4.79,0,0,1,3.22-.95" style="fill:#fff;stroke:#263238;stroke-linecap:round;stroke-linejoin:round"></path><path d="M193.92,451S195,449,196.56,449" style="fill:#fff;stroke:#263238;stroke-linecap:round;stroke-linejoin:round"></path><path d="M200.37,349.07s-3.69-.74-10.33,2.58-12.74,9.23-16.25,11.26-5.9,3.33-9,.19-9.78-11.82-16.06-11.63-8.49,8.86-7.38,10.7,2.77,2.22,4.06.74,2.95-4.43,4.61-3.32.74,6.28-1.84,7.2-9.6,5.35-7.94,7.94,11.08,6.09,18.09,6.64,15.69-4.24,21.41-5.17,21.23-2,28.42-7.93a15.1,15.1,0,0,0,5.36-14.22" style="fill:#fff;stroke:#263238;stroke-linecap:round;stroke-linejoin:round"></path><path d="M141.12,370.85s-.73-8.12-3.13-8.68-2.77,5-2.4,10.34,3.32,6.83,5.16,5.35S141.12,370.85,141.12,370.85Z" style="fill:#fff;stroke:#263238;stroke-linecap:round;stroke-linejoin:round"></path><path d="M146.89,373.14s.7-8.13-1.56-9.1-3.6,4.42-4.19,9.75,2.07,7.31,4.15,6.19S146.89,373.14,146.89,373.14Z" style="fill:#fff;stroke:#263238;stroke-linecap:round;stroke-linejoin:round"></path><path d="M151.87,375s.71-8.12-1.56-9.09-3.6,4.42-4.18,9.75,2.06,7.31,4.14,6.18S151.87,375,151.87,375Z" style="fill:#fff;stroke:#263238;stroke-linecap:round;stroke-linejoin:round"></path><path d="M164.93,381a24.22,24.22,0,0,1-10.7,2.22,39.48,39.48,0,0,1-.37-4.62c0-2,4.24-10.33,10.52-9.78" style="fill:#fff;stroke:#263238;stroke-linecap:round;stroke-linejoin:round"></path><path d="M157.16,378.17s2.35-6.36.41-7.84-4.33,2.46-6,6.6.44,6.56,2.64,6.29S157.16,378.17,157.16,378.17Z" style="fill:#fff;stroke:#263238;stroke-linecap:round;stroke-linejoin:round"></path><path d="M308.82,349.07s3.69-.74,10.34,2.58,12.73,9.23,16.24,11.26,5.91,3.33,9.05.19,9.78-11.82,16.05-11.63,8.49,8.86,7.39,10.7-2.77,2.22-4.06.74-3-4.43-4.62-3.32-.74,6.28,1.85,7.2,9.6,5.35,7.93,7.94-11.07,6.09-18.08,6.64-15.69-4.24-21.42-5.17-21.22-2-28.42-7.93a15.08,15.08,0,0,1-5.35-14.22" style="fill:#fff;stroke:#263238;stroke-linecap:round;stroke-linejoin:round"></path><path d="M368.07,370.85s.74-8.12,3.14-8.68,2.77,5,2.4,10.34-3.32,6.83-5.17,5.35S368.07,370.85,368.07,370.85Z" style="fill:#fff;stroke:#263238;stroke-linecap:round;stroke-linejoin:round"></path><path d="M362.31,373.14s-.71-8.13,1.55-9.1,3.61,4.42,4.19,9.75S366,381.1,363.91,380,362.31,373.14,362.31,373.14Z" style="fill:#fff;stroke:#263238;stroke-linecap:round;stroke-linejoin:round"></path><path d="M357.32,375s-.7-8.12,1.56-9.09,3.61,4.42,4.19,9.75-2.07,7.31-4.14,6.18S357.32,375,357.32,375Z" style="fill:#fff;stroke:#263238;stroke-linecap:round;stroke-linejoin:round"></path><path d="M344.26,381A24.25,24.25,0,0,0,355,383.22a39.48,39.48,0,0,0,.37-4.62c0-2-4.25-10.33-10.53-9.78" style="fill:#fff;stroke:#263238;stroke-linecap:round;stroke-linejoin:round"></path><path d="M352,378.17s-2.35-6.36-.41-7.84,4.32,2.46,6,6.6-.44,6.56-2.64,6.29S352,378.17,352,378.17Z" style="fill:#fff;stroke:#263238;stroke-linecap:round;stroke-linejoin:round"></path></g></svg>