<svg xmlns="http://www.w3.org/2000/svg" viewBox="0 0 500 500"><g id="freepik--Character--inject-4"><ellipse cx="246.98" cy="478.63" rx="25.73" ry="2.31" style="fill:#263238"></ellipse><path d="M151.81,287.83s-5.51,2.48-4.13,11.29,42.68,66.09,53.14,104.64,2.21,70.49,46,66.91S296.37,417.8,306,379s33.59-63.61,35-81.23-9.92-14.6-9.92-14.6" style="fill:none;stroke:#263238;stroke-miterlimit:10"></path><path d="M211.41,339.64s3.93,25.93,4.13,27.31-3.93,16.3-1.18,24.55,6.88,21,8.65,24.76,2,4.12,2.16,10-1.38,17.87.78,21.8a10.28,10.28,0,0,0,10.81,5.3c4.32-.78,6.48-3.92,5.89-8.84s-2.55-11.39-3.73-16.89-2.36-10-3.15-13.36-.59-1.18-.78-14-1-18.85-1.57-25.14-.4-7.27-.59-9,7.07-26.32,7.07-26.32l-28.68-2.16Z" style="fill:#fff;stroke:#263238;stroke-miterlimit:10"></path><path d="M238.92,427.65c-1.18-5.5-2.36-10-3.15-13.36s-.59-1.18-.78-14-1-18.85-1.57-25.14c0,0-2.71,28.69-8.27,50.5,0,.19,0,.37,0,.58.19,5.89-1.38,17.87.78,21.8a10.28,10.28,0,0,0,10.81,5.3c4.32-.78,6.48-3.92,5.89-8.84S240.1,433.15,238.92,427.65Z" style="fill:#263238;stroke:#263238;stroke-miterlimit:10"></path><path d="M242.65,444.54c-.59-4.91-2.55-11.39-3.73-16.89s-2.36-10-3.15-13.36c0,0,1,3.73-3.53,6.48a6.63,6.63,0,0,1-7.51,0,35.66,35.66,0,0,1,.44,5.53c.19,5.89-1.38,17.87.78,21.8a10.28,10.28,0,0,0,10.81,5.3C241.08,452.6,243.24,449.46,242.65,444.54Z" style="fill:#fff;stroke:#263238;stroke-miterlimit:10"></path><path d="M236.76,453.38c4.32-.78,6.48-3.92,5.89-8.84-.05-.39-.12-.82-.18-1.23-1.11,5.48-4.17,8.76-9.45,7.91-4.2-.67-6.91-6-8.18-9.14a14.92,14.92,0,0,0,1.11,6A10.28,10.28,0,0,0,236.76,453.38Z" style="fill:#fff;stroke:#263238;stroke-miterlimit:10"></path><path d="M254.24,371.66s.39,6.88,1.77,9.63,4.32,3.14,6.09,6.68,2.35,4.52.19,12c-1.14,4-3.36,10.6.19,14,5.48,5.2,10.12-2,12-6.69,1.8-4.38,1.88-8.91,1.35-13.55-.79-6.88-.79-7.47-.79-8.65s4.72-7.86,2.16-14.53-7.07-6.09-7.07-6.09S256.4,361.84,254.24,371.66Z" style="fill:#263238;stroke:#263238;stroke-miterlimit:10"></path><path d="M248.74,341.8s1.37,25.54,4.12,30.65,11.79,7.66,15.13,5.5,5.89-13.36,6.88-19.84S277,342.79,277,342.79Z" style="fill:#fff;stroke:#263238;stroke-miterlimit:10"></path><path d="M213,270.5s-5.9,24.55-6.29,34.37-2.36,25.93-3.14,30.06a35,35,0,0,0-.59,7.66s3.73-1.37,17.87.59,15.52,2.36,18.08,2.36h2.55l2.55-2.36-.39,2.36s-4.12,2,9.63.39,18.07-.59,22.39-.79,7.66-.59,7.66-.59,1.58-13-2-30.44-3.34-27.51-6.88-34l-3.53-6.48s-27.31,1.37-37.33,1.18a64.52,64.52,0,0,1-19.25-3.74" style="fill:#263238;stroke:#263238;stroke-miterlimit:10"></path><path d="M164.74,269.31l-4.42,3.82s-6.64,2.41-7.84,4.42-2.21,6.23-3.22,6.64-3.62.6-2.61,1.81,3,.8,3,.8.81,4,1.41,4.82,2.81-.8,6.84-2.41,4.62-1,5.42-3.82,2.21-7.84,2.21-7.84l2.82-2.61Z" style="fill:#fff;stroke:#263238;stroke-miterlimit:10"></path><path d="M164.74,269.31l-3.18,2.75,3.95,5.6,0-.11,2.82-2.61Z" style="fill:#008010;stroke:#263238;stroke-miterlimit:10"></path><path d="M149.66,286.8l9-4.52a1.21,1.21,0,0,1,1.6.48,15.06,15.06,0,0,1,1.63,3.84" style="fill:none;stroke:#263238;stroke-miterlimit:10"></path><path d="M160.29,281.88l1.48-.74a1.8,1.8,0,0,1,2.48,1l.13.34a1.8,1.8,0,0,1-1.17,2.36l-1.07.31Z" style="fill:#263238;stroke:#263238;stroke-miterlimit:10"></path><path d="M158.7,282.28s1.16-.62,1.16-2.89" style="fill:none;stroke:#263238;stroke-miterlimit:10"></path><path d="M318.78,267.66l5,3s6.94,1.27,8.47,3.06,3.22,5.77,4.28,6,3.66,0,2.87,1.35-2.83,1.3-2.83,1.3-.13,4.09-.59,5-2.91-.33-7.14-1.24-4.73-.22-6-2.86-3.49-7.37-3.49-7.37l-3.21-2.1Z" style="fill:#fff;stroke:#263238;stroke-miterlimit:10"></path><path d="M318.78,267.66l3.6,2.18-3,6.19-.05-.11-3.21-2.1Z" style="fill:#008010;stroke:#263238;stroke-miterlimit:10"></path><path d="M336.57,282.4l-9.67-3a1.22,1.22,0,0,0-1.5.75,15,15,0,0,0-1,4.05" style="fill:none;stroke:#263238;stroke-miterlimit:10"></path><path d="M325.26,279.32l-1.57-.48a1.79,1.79,0,0,0-2.29,1.37l-.07.36a1.8,1.8,0,0,0,1.55,2.13l1.11.13Z" style="fill:#263238;stroke:#263238;stroke-miterlimit:10"></path><path d="M326.9,279.44s-1.24-.41-1.62-2.66" style="fill:none;stroke:#263238;stroke-miterlimit:10"></path><path d="M223,192.74s-19.64,5.4-20.45,9.83-6.23,18.89-6.23,19.9-6.63,23.92-6.63,23.92-2.61,2-2.82,2.82c0,0-9.85,5.63-13.67,9.85s-10.25,7.64-9.85,9,2.42,9.65,8.85,9.45,26.33-10.05,30.35-14.07S212.39,247,212.39,247s-4,13.06-3,16.08,2,8.44,5.23,9.85,13.47,5,32,4.62,23.52-1,26.14-4.82a28.32,28.32,0,0,0,4.62-12.87,57.55,57.55,0,0,0,.6-8.44c0-1.81,4.43,8,15.28,14.67s17.49,13.07,19.5,10.86,9.05-5.43,7.84-11.26-5.63-6.83-11.06-12.26a39.77,39.77,0,0,1-7.84-11.06s.61-2.81-.6-4.22l-1.2-1.41a17.08,17.08,0,0,0-1.21-16.08,145.57,145.57,0,0,0-11.46-15.88c-4.42-5.43-3.42-6.84-7.84-9.45s-2.61-2.41-12.67-4.42-12.7-.37-25.85-.49S223,192.74,223,192.74Z" style="fill:#008010;stroke:#263238;stroke-miterlimit:10"></path><path d="M277.92,251.42s1.81-12.06,3-22.12-1.61-18.09-3.42-21.1" style="fill:none;stroke:#263238;stroke-miterlimit:10"></path><path d="M212,212.62s-2.21,7.24-.4,13.27,1.81,9,1.61,12.26-.8,8.85-.8,8.85" style="fill:none;stroke:#263238;stroke-miterlimit:10"></path><path d="M214.4,258.25c.6-.4,12.06-16.08,12.06-16.08l2,1.41L215.8,260.26" style="fill:none;stroke:#263238;stroke-miterlimit:10"></path><polyline points="259.02 244.78 270.28 264.28 272.5 262.68 261.44 243.98" style="fill:none;stroke:#263238;stroke-miterlimit:10"></polyline><path d="M229.07,276.15s-.8-1.41-7.24-7.85" style="fill:none;stroke:#263238;stroke-miterlimit:10"></path><path d="M246.56,277.55s7.24-3.21,8.85-7" style="fill:none;stroke:#263238;stroke-miterlimit:10"></path><path d="M253.2,276.75a5.82,5.82,0,0,0,4-2.62" style="fill:none;stroke:#263238;stroke-miterlimit:10"></path><path d="M231.42,174s-6.81,1.63-7.21,3.4a30,30,0,0,0-.41,3.67c-.14.55-3.41,2.45-4.49,4.36s.68,2.31.68,2.86-2.45,2.31-1.77,3.26a5.1,5.1,0,0,0,4.76,2.72c3.27.14,17.42-.68,18-.54s9.79-2,16.6-1.77,12.93,2.45,13.34.68-3-6.26-3-6.26,2.45-.54.68-3.67-3.81-3.54-3.81-4.22,2.18-1.64-3-3.41A46,46,0,0,0,249,173c-2.73-.14-14.57-.41-14.57-.41Z" style="fill:#008010;stroke:#263238;stroke-miterlimit:10"></path><path d="M264.76,178.53a67.17,67.17,0,0,0-10.84,6.65c-4.18,3.42-5.89,6.08-9.12,6.85" style="fill:none;stroke:#263238;stroke-miterlimit:10"></path><path d="M267.89,186.42s-2.94-.86-8.83,1.42-4.76,3-9.51,3.61" style="fill:none;stroke:#263238;stroke-miterlimit:10"></path><path d="M223.8,181.11s2.18,1,7.12,6.35,7.8,4.57,7.8,4.57" style="fill:none;stroke:#263238;stroke-miterlimit:10"></path><path d="M220,188.33c1,.27,2.95,3.51,9.41,4.27" style="fill:none;stroke:#263238;stroke-miterlimit:10"></path><path d="M232.92,174.23a15.72,15.72,0,0,0,1.49,8.71c2.18,3.94,4.36,7.89,6.4,7.48s9.39-8.16,10.89-10.2a23.66,23.66,0,0,0,2.58-6.13S241.76,180.22,232.92,174.23Z" style="fill:#fff;stroke:#263238;stroke-miterlimit:10"></path><path d="M254.28,174.09s-12.52,6.13-21.36.14a15.94,15.94,0,0,0-.06,3,29.32,29.32,0,0,0,11.61,10.56,71.66,71.66,0,0,0,7.23-7.59A23.66,23.66,0,0,0,254.28,174.09Z" style="fill:#263238;stroke:#263238;stroke-miterlimit:10"></path><path d="M229,158.22s-3-2.67-3.8-.31a6.59,6.59,0,0,0,1.42,6.83c1.89,2.08,3.08,2.4,3.08,2.4Z" style="fill:#fff;stroke:#263238;stroke-miterlimit:10"></path><path d="M258.09,161.16s3.41-2.18,3.82.27a6.64,6.64,0,0,1-2.45,6.54c-2.18,1.77-3.41,1.9-3.41,1.9Z" style="fill:#fff;stroke:#263238;stroke-miterlimit:10"></path><path d="M241.9,133.67s-8.85-2-10.62,5-3.4,18-3.26,23,2.72,12.38,4.08,13.88,5.31,5.44,8.17,5.58,9.66-1.63,12.79-4.77,2.58-6.12,4.22-11.16,4.08-12.24,2.58-19.46-.4-5.44-6.12-9.93S240.27,128.5,241.9,133.67Z" style="fill:#fff;stroke:#263238;stroke-miterlimit:10"></path><path d="M259.86,145.78c-1.49-7.21-.4-5.44-6.12-9.93s-13.47-7.35-11.84-2.18c0,0-8.85-2-10.62,5a135.69,135.69,0,0,0-2.75,15.3l.3-.06s1.77-.27,2-3.81.41-8.44,1.91-8.58,4.22,3.68,8.71,2.18,6.94-4.08,10.75-2.45,5.17,4.77,4.22,6.13-1.77,3.4-.82,5a16.85,16.85,0,0,1,2.05,4.22c.2.91.33,4.4.38,6.11C259.57,158,261.13,151.89,259.86,145.78Z" style="fill:#263238;stroke:#263238;stroke-miterlimit:10"></path><polyline points="239.99 154.9 240.67 157.08 239.72 159.53" style="fill:none;stroke:#263238;stroke-miterlimit:10"></polyline><path d="M239.58,163.48c0,.4,2.18,2.45,5.45.81" style="fill:none;stroke:#263238;stroke-miterlimit:10"></path><circle cx="241.9" cy="170.28" r="1.22" style="fill:#263238"></circle><path d="M236.73,157.49c0,.6-.37,1.09-.82,1.09s-.82-.49-.82-1.09.37-1.09.82-1.09S236.73,156.89,236.73,157.49Z" style="fill:#263238"></path><path d="M249.93,157.9a1,1,0,0,1-.82,1.08c-.45,0-.81-.48-.81-1.08s.36-1.09.81-1.09S249.93,157.29,249.93,157.9Z" style="fill:#263238"></path><path d="M232.92,153.27a7.24,7.24,0,0,1,6,.81" style="fill:none;stroke:#263238;stroke-miterlimit:10"></path><path d="M246.66,154.9a8.74,8.74,0,0,1,7.62.14" style="fill:#fff;stroke:#263238;stroke-miterlimit:10"></path></g></svg>